<mxfile host="Electron" modified="2024-02-21T17:03:11.136Z" agent="Mozilla/5.0 (Windows NT 10.0; Win64; x64) AppleWebKit/537.36 (KHTML, like Gecko) draw.io/23.0.2 Chrome/120.0.6099.109 Electron/28.1.0 Safari/537.36" etag="5yYxG41sfGGVztHTcvnG" version="23.0.2" type="device" pages="2">
  <diagram name="Página-1" id="qSlkcnga5wFxTFf57-K5">
    <mxGraphModel dx="1047" dy="497" grid="1" gridSize="10" guides="1" tooltips="1" connect="1" arrows="1" fold="1" page="1" pageScale="1" pageWidth="827" pageHeight="1169" math="0" shadow="0">
      <root>
        <mxCell id="0" />
        <mxCell id="1" parent="0" />
        <mxCell id="k9bCb90cWJ05puUlKuU--32" value="Clientes" style="swimlane;fontStyle=1;align=center;verticalAlign=top;childLayout=stackLayout;horizontal=1;startSize=26;horizontalStack=0;resizeParent=1;resizeParentMax=0;resizeLast=0;collapsible=1;marginBottom=0;whiteSpace=wrap;html=1;" vertex="1" parent="1">
          <mxGeometry x="30" y="100" width="130" height="190" as="geometry" />
        </mxCell>
        <mxCell id="k9bCb90cWJ05puUlKuU--33" value="+ Nome: string&lt;br&gt;&lt;br&gt;+ CodCli: integer&lt;br&gt;&lt;br&gt;+ Morada: string" style="text;strokeColor=none;fillColor=none;align=left;verticalAlign=top;spacingLeft=4;spacingRight=4;overflow=hidden;rotatable=0;points=[[0,0.5],[1,0.5]];portConstraint=eastwest;whiteSpace=wrap;html=1;" vertex="1" parent="k9bCb90cWJ05puUlKuU--32">
          <mxGeometry y="26" width="130" height="84" as="geometry" />
        </mxCell>
        <mxCell id="k9bCb90cWJ05puUlKuU--34" value="" style="line;strokeWidth=1;fillColor=none;align=left;verticalAlign=middle;spacingTop=-1;spacingLeft=3;spacingRight=3;rotatable=0;labelPosition=right;points=[];portConstraint=eastwest;strokeColor=inherit;" vertex="1" parent="k9bCb90cWJ05puUlKuU--32">
          <mxGeometry y="110" width="130" height="8" as="geometry" />
        </mxCell>
        <mxCell id="k9bCb90cWJ05puUlKuU--35" value="+ AlterarDados()&lt;br&gt;+ Arquivar()&lt;br&gt;+ Apagar()&lt;br&gt;+ Criar()" style="text;strokeColor=none;fillColor=none;align=left;verticalAlign=top;spacingLeft=4;spacingRight=4;overflow=hidden;rotatable=0;points=[[0,0.5],[1,0.5]];portConstraint=eastwest;whiteSpace=wrap;html=1;" vertex="1" parent="k9bCb90cWJ05puUlKuU--32">
          <mxGeometry y="118" width="130" height="72" as="geometry" />
        </mxCell>
        <mxCell id="k9bCb90cWJ05puUlKuU--36" value="Agencias" style="swimlane;fontStyle=1;align=center;verticalAlign=top;childLayout=stackLayout;horizontal=1;startSize=26;horizontalStack=0;resizeParent=1;resizeParentMax=0;resizeLast=0;collapsible=1;marginBottom=0;whiteSpace=wrap;html=1;" vertex="1" parent="1">
          <mxGeometry x="470" y="160" width="160" height="180" as="geometry" />
        </mxCell>
        <mxCell id="k9bCb90cWJ05puUlKuU--37" value="+ CodAgencia: integer&lt;br&gt;&lt;br&gt;+ Morada: string" style="text;strokeColor=none;fillColor=none;align=left;verticalAlign=top;spacingLeft=4;spacingRight=4;overflow=hidden;rotatable=0;points=[[0,0.5],[1,0.5]];portConstraint=eastwest;whiteSpace=wrap;html=1;" vertex="1" parent="k9bCb90cWJ05puUlKuU--36">
          <mxGeometry y="26" width="160" height="64" as="geometry" />
        </mxCell>
        <mxCell id="k9bCb90cWJ05puUlKuU--38" value="" style="line;strokeWidth=1;fillColor=none;align=left;verticalAlign=middle;spacingTop=-1;spacingLeft=3;spacingRight=3;rotatable=0;labelPosition=right;points=[];portConstraint=eastwest;strokeColor=inherit;" vertex="1" parent="k9bCb90cWJ05puUlKuU--36">
          <mxGeometry y="90" width="160" height="8" as="geometry" />
        </mxCell>
        <mxCell id="k9bCb90cWJ05puUlKuU--39" value="+ AlterarDados()&lt;br style=&quot;border-color: var(--border-color);&quot;&gt;+ Arquivar()&lt;br style=&quot;border-color: var(--border-color);&quot;&gt;+ Apagar()&lt;br style=&quot;border-color: var(--border-color);&quot;&gt;+ Criar()" style="text;strokeColor=none;fillColor=none;align=left;verticalAlign=top;spacingLeft=4;spacingRight=4;overflow=hidden;rotatable=0;points=[[0,0.5],[1,0.5]];portConstraint=eastwest;whiteSpace=wrap;html=1;" vertex="1" parent="k9bCb90cWJ05puUlKuU--36">
          <mxGeometry y="98" width="160" height="82" as="geometry" />
        </mxCell>
        <mxCell id="k9bCb90cWJ05puUlKuU--40" value="Contas" style="swimlane;fontStyle=1;align=center;verticalAlign=top;childLayout=stackLayout;horizontal=1;startSize=26;horizontalStack=0;resizeParent=1;resizeParentMax=0;resizeLast=0;collapsible=1;marginBottom=0;whiteSpace=wrap;html=1;" vertex="1" parent="1">
          <mxGeometry x="220" y="340" width="160" height="240" as="geometry" />
        </mxCell>
        <mxCell id="k9bCb90cWJ05puUlKuU--41" value="+ NConta: long&lt;br&gt;&lt;br&gt;+ CodCliente: integer&lt;br&gt;&lt;br&gt;+ CodAgencia: integer&lt;br&gt;&lt;br&gt;+ Saldo: double&lt;br&gt;&lt;br&gt;+ TipoConta: string" style="text;strokeColor=none;fillColor=none;align=left;verticalAlign=top;spacingLeft=4;spacingRight=4;overflow=hidden;rotatable=0;points=[[0,0.5],[1,0.5]];portConstraint=eastwest;whiteSpace=wrap;html=1;" vertex="1" parent="k9bCb90cWJ05puUlKuU--40">
          <mxGeometry y="26" width="160" height="144" as="geometry" />
        </mxCell>
        <mxCell id="k9bCb90cWJ05puUlKuU--42" value="" style="line;strokeWidth=1;fillColor=none;align=left;verticalAlign=middle;spacingTop=-1;spacingLeft=3;spacingRight=3;rotatable=0;labelPosition=right;points=[];portConstraint=eastwest;strokeColor=inherit;" vertex="1" parent="k9bCb90cWJ05puUlKuU--40">
          <mxGeometry y="170" width="160" height="8" as="geometry" />
        </mxCell>
        <mxCell id="k9bCb90cWJ05puUlKuU--43" value="+ AlterarDados()&lt;br style=&quot;border-color: var(--border-color);&quot;&gt;+ Arquivar()&lt;br style=&quot;border-color: var(--border-color);&quot;&gt;+ Criar()" style="text;strokeColor=none;fillColor=none;align=left;verticalAlign=top;spacingLeft=4;spacingRight=4;overflow=hidden;rotatable=0;points=[[0,0.5],[1,0.5]];portConstraint=eastwest;whiteSpace=wrap;html=1;" vertex="1" parent="k9bCb90cWJ05puUlKuU--40">
          <mxGeometry y="178" width="160" height="62" as="geometry" />
        </mxCell>
        <mxCell id="k9bCb90cWJ05puUlKuU--47" value="tem" style="endArrow=block;endFill=1;html=1;edgeStyle=orthogonalEdgeStyle;align=left;verticalAlign=top;rounded=0;exitX=1;exitY=0.5;exitDx=0;exitDy=0;entryX=0.532;entryY=-0.004;entryDx=0;entryDy=0;entryPerimeter=0;" edge="1" parent="1" source="k9bCb90cWJ05puUlKuU--35" target="k9bCb90cWJ05puUlKuU--40">
          <mxGeometry x="-0.5301" y="24" relative="1" as="geometry">
            <mxPoint x="360" y="340" as="sourcePoint" />
            <mxPoint x="520" y="340" as="targetPoint" />
            <mxPoint as="offset" />
          </mxGeometry>
        </mxCell>
        <mxCell id="k9bCb90cWJ05puUlKuU--48" value="&lt;b&gt;&lt;font style=&quot;font-size: 12px;&quot;&gt;1..*&lt;/font&gt;&lt;/b&gt;" style="edgeLabel;resizable=0;html=1;align=left;verticalAlign=bottom;" connectable="0" vertex="1" parent="k9bCb90cWJ05puUlKuU--47">
          <mxGeometry x="-1" relative="1" as="geometry">
            <mxPoint x="3" as="offset" />
          </mxGeometry>
        </mxCell>
        <mxCell id="k9bCb90cWJ05puUlKuU--49" value="&amp;nbsp;0..*" style="text;align=center;fontStyle=1;verticalAlign=middle;spacingLeft=3;spacingRight=3;strokeColor=none;rotatable=0;points=[[0,0.5],[1,0.5]];portConstraint=eastwest;html=1;" vertex="1" parent="1">
          <mxGeometry x="240" y="320" width="80" height="26" as="geometry" />
        </mxCell>
        <mxCell id="k9bCb90cWJ05puUlKuU--56" value="name" style="endArrow=block;endFill=1;html=1;edgeStyle=orthogonalEdgeStyle;align=left;verticalAlign=top;rounded=0;exitX=0.75;exitY=0;exitDx=0;exitDy=0;entryX=0.01;entryY=0.075;entryDx=0;entryDy=0;entryPerimeter=0;" edge="1" parent="1" source="k9bCb90cWJ05puUlKuU--40" target="k9bCb90cWJ05puUlKuU--39">
          <mxGeometry x="-1" relative="1" as="geometry">
            <mxPoint x="360" y="340" as="sourcePoint" />
            <mxPoint x="520" y="340" as="targetPoint" />
          </mxGeometry>
        </mxCell>
        <mxCell id="k9bCb90cWJ05puUlKuU--57" value="&lt;font style=&quot;font-size: 12px;&quot;&gt;&lt;b&gt;0..*&lt;/b&gt;&lt;/font&gt;" style="edgeLabel;resizable=0;html=1;align=left;verticalAlign=bottom;" connectable="0" vertex="1" parent="k9bCb90cWJ05puUlKuU--56">
          <mxGeometry x="-1" relative="1" as="geometry">
            <mxPoint as="offset" />
          </mxGeometry>
        </mxCell>
        <mxCell id="k9bCb90cWJ05puUlKuU--58" value="&lt;b&gt;&lt;font style=&quot;font-size: 12px;&quot;&gt;1..1&lt;/font&gt;&lt;/b&gt;" style="edgeLabel;resizable=0;html=1;align=left;verticalAlign=bottom;" connectable="0" vertex="1" parent="1">
          <mxGeometry x="440" y="264" as="geometry" />
        </mxCell>
        <mxCell id="k9bCb90cWJ05puUlKuU--59" value="&lt;span style=&quot;font-size: 11px; background-color: rgb(255, 255, 255);&quot;&gt;tem&lt;/span&gt;" style="text;whiteSpace=wrap;html=1;" vertex="1" parent="1">
          <mxGeometry x="364" y="240" width="50" height="40" as="geometry" />
        </mxCell>
      </root>
    </mxGraphModel>
  </diagram>
  <diagram id="lKLIkQbAiT_HPARZpi2G" name="Página-2">
    <mxGraphModel dx="1047" dy="497" grid="1" gridSize="10" guides="1" tooltips="1" connect="1" arrows="1" fold="1" page="1" pageScale="1" pageWidth="827" pageHeight="1169" math="0" shadow="0">
      <root>
        <mxCell id="0" />
        <mxCell id="1" parent="0" />
        <mxCell id="-wpEujupi3Q9Y67pAaGg-1" value="Filme" style="swimlane;fontStyle=1;align=center;verticalAlign=top;childLayout=stackLayout;horizontal=1;startSize=26;horizontalStack=0;resizeParent=1;resizeParentMax=0;resizeLast=0;collapsible=1;marginBottom=0;whiteSpace=wrap;html=1;" vertex="1" parent="1">
          <mxGeometry x="300" y="340" width="150" height="160" as="geometry" />
        </mxCell>
        <mxCell id="-wpEujupi3Q9Y67pAaGg-2" value="+ título: string&lt;br&gt;+ ano_realizacao: integer&lt;br&gt;+ duracao: integer" style="text;strokeColor=none;fillColor=none;align=left;verticalAlign=top;spacingLeft=4;spacingRight=4;overflow=hidden;rotatable=0;points=[[0,0.5],[1,0.5]];portConstraint=eastwest;whiteSpace=wrap;html=1;" vertex="1" parent="-wpEujupi3Q9Y67pAaGg-1">
          <mxGeometry y="26" width="150" height="54" as="geometry" />
        </mxCell>
        <mxCell id="-wpEujupi3Q9Y67pAaGg-3" value="" style="line;strokeWidth=1;fillColor=none;align=left;verticalAlign=middle;spacingTop=-1;spacingLeft=3;spacingRight=3;rotatable=0;labelPosition=right;points=[];portConstraint=eastwest;strokeColor=inherit;" vertex="1" parent="-wpEujupi3Q9Y67pAaGg-1">
          <mxGeometry y="80" width="150" height="8" as="geometry" />
        </mxCell>
        <mxCell id="-wpEujupi3Q9Y67pAaGg-4" value="+ adicionar()&lt;br&gt;+ atualizar()&lt;br&gt;+ consultar()&lt;br&gt;+ arquivar()&lt;br&gt;" style="text;strokeColor=none;fillColor=none;align=left;verticalAlign=top;spacingLeft=4;spacingRight=4;overflow=hidden;rotatable=0;points=[[0,0.5],[1,0.5]];portConstraint=eastwest;whiteSpace=wrap;html=1;" vertex="1" parent="-wpEujupi3Q9Y67pAaGg-1">
          <mxGeometry y="88" width="150" height="72" as="geometry" />
        </mxCell>
        <mxCell id="-wpEujupi3Q9Y67pAaGg-5" value="Genero" style="swimlane;fontStyle=1;align=center;verticalAlign=top;childLayout=stackLayout;horizontal=1;startSize=26;horizontalStack=0;resizeParent=1;resizeParentMax=0;resizeLast=0;collapsible=1;marginBottom=0;whiteSpace=wrap;html=1;" vertex="1" parent="1">
          <mxGeometry x="70" y="170" width="130" height="150" as="geometry" />
        </mxCell>
        <mxCell id="-wpEujupi3Q9Y67pAaGg-6" value="+ cod: integer&lt;br&gt;+ designacao: string" style="text;strokeColor=none;fillColor=none;align=left;verticalAlign=top;spacingLeft=4;spacingRight=4;overflow=hidden;rotatable=0;points=[[0,0.5],[1,0.5]];portConstraint=eastwest;whiteSpace=wrap;html=1;" vertex="1" parent="-wpEujupi3Q9Y67pAaGg-5">
          <mxGeometry y="26" width="130" height="44" as="geometry" />
        </mxCell>
        <mxCell id="-wpEujupi3Q9Y67pAaGg-7" value="" style="line;strokeWidth=1;fillColor=none;align=left;verticalAlign=middle;spacingTop=-1;spacingLeft=3;spacingRight=3;rotatable=0;labelPosition=right;points=[];portConstraint=eastwest;strokeColor=inherit;" vertex="1" parent="-wpEujupi3Q9Y67pAaGg-5">
          <mxGeometry y="70" width="130" height="8" as="geometry" />
        </mxCell>
        <mxCell id="-wpEujupi3Q9Y67pAaGg-8" value="+ adicionar()&lt;br&gt;+ atualizar()&lt;br&gt;+ consultar()&lt;br&gt;+ arquivar()&lt;br&gt;" style="text;strokeColor=none;fillColor=none;align=left;verticalAlign=top;spacingLeft=4;spacingRight=4;overflow=hidden;rotatable=0;points=[[0,0.5],[1,0.5]];portConstraint=eastwest;whiteSpace=wrap;html=1;" vertex="1" parent="-wpEujupi3Q9Y67pAaGg-5">
          <mxGeometry y="78" width="130" height="72" as="geometry" />
        </mxCell>
        <mxCell id="-wpEujupi3Q9Y67pAaGg-13" value="País de Oriegm" style="swimlane;fontStyle=1;align=center;verticalAlign=top;childLayout=stackLayout;horizontal=1;startSize=26;horizontalStack=0;resizeParent=1;resizeParentMax=0;resizeLast=0;collapsible=1;marginBottom=0;whiteSpace=wrap;html=1;" vertex="1" parent="1">
          <mxGeometry x="120" y="470" width="120" height="150" as="geometry" />
        </mxCell>
        <mxCell id="-wpEujupi3Q9Y67pAaGg-14" value="+ cod: string&lt;br&gt;+ designacao: string" style="text;strokeColor=none;fillColor=none;align=left;verticalAlign=top;spacingLeft=4;spacingRight=4;overflow=hidden;rotatable=0;points=[[0,0.5],[1,0.5]];portConstraint=eastwest;whiteSpace=wrap;html=1;" vertex="1" parent="-wpEujupi3Q9Y67pAaGg-13">
          <mxGeometry y="26" width="120" height="44" as="geometry" />
        </mxCell>
        <mxCell id="-wpEujupi3Q9Y67pAaGg-15" value="" style="line;strokeWidth=1;fillColor=none;align=left;verticalAlign=middle;spacingTop=-1;spacingLeft=3;spacingRight=3;rotatable=0;labelPosition=right;points=[];portConstraint=eastwest;strokeColor=inherit;" vertex="1" parent="-wpEujupi3Q9Y67pAaGg-13">
          <mxGeometry y="70" width="120" height="8" as="geometry" />
        </mxCell>
        <mxCell id="-wpEujupi3Q9Y67pAaGg-16" value="+ adicionar()&lt;br&gt;+ atualizar()&lt;br&gt;+ consultar()&lt;br&gt;+ arquivar()&lt;br&gt;" style="text;strokeColor=none;fillColor=none;align=left;verticalAlign=top;spacingLeft=4;spacingRight=4;overflow=hidden;rotatable=0;points=[[0,0.5],[1,0.5]];portConstraint=eastwest;whiteSpace=wrap;html=1;" vertex="1" parent="-wpEujupi3Q9Y67pAaGg-13">
          <mxGeometry y="78" width="120" height="72" as="geometry" />
        </mxCell>
        <mxCell id="-wpEujupi3Q9Y67pAaGg-17" value="Realizador" style="swimlane;fontStyle=1;align=center;verticalAlign=top;childLayout=stackLayout;horizontal=1;startSize=26;horizontalStack=0;resizeParent=1;resizeParentMax=0;resizeLast=0;collapsible=1;marginBottom=0;whiteSpace=wrap;html=1;" vertex="1" parent="1">
          <mxGeometry x="513" y="440" width="120" height="180" as="geometry" />
        </mxCell>
        <mxCell id="-wpEujupi3Q9Y67pAaGg-18" value="+ cod: integer&lt;br&gt;+ Nome: string&lt;br&gt;+ Endereço: string&lt;br&gt;+ DataNasc: date" style="text;strokeColor=none;fillColor=none;align=left;verticalAlign=top;spacingLeft=4;spacingRight=4;overflow=hidden;rotatable=0;points=[[0,0.5],[1,0.5]];portConstraint=eastwest;whiteSpace=wrap;html=1;" vertex="1" parent="-wpEujupi3Q9Y67pAaGg-17">
          <mxGeometry y="26" width="120" height="74" as="geometry" />
        </mxCell>
        <mxCell id="-wpEujupi3Q9Y67pAaGg-19" value="" style="line;strokeWidth=1;fillColor=none;align=left;verticalAlign=middle;spacingTop=-1;spacingLeft=3;spacingRight=3;rotatable=0;labelPosition=right;points=[];portConstraint=eastwest;strokeColor=inherit;" vertex="1" parent="-wpEujupi3Q9Y67pAaGg-17">
          <mxGeometry y="100" width="120" height="8" as="geometry" />
        </mxCell>
        <mxCell id="-wpEujupi3Q9Y67pAaGg-20" value="+ adicionar()&lt;br&gt;+ atualizar()&lt;br&gt;+ consultar()&lt;br&gt;+ arquivar()&lt;br&gt;" style="text;strokeColor=none;fillColor=none;align=left;verticalAlign=top;spacingLeft=4;spacingRight=4;overflow=hidden;rotatable=0;points=[[0,0.5],[1,0.5]];portConstraint=eastwest;whiteSpace=wrap;html=1;" vertex="1" parent="-wpEujupi3Q9Y67pAaGg-17">
          <mxGeometry y="108" width="120" height="72" as="geometry" />
        </mxCell>
        <mxCell id="-wpEujupi3Q9Y67pAaGg-21" value="Ator" style="swimlane;fontStyle=1;align=center;verticalAlign=top;childLayout=stackLayout;horizontal=1;startSize=26;horizontalStack=0;resizeParent=1;resizeParentMax=0;resizeLast=0;collapsible=1;marginBottom=0;whiteSpace=wrap;html=1;" vertex="1" parent="1">
          <mxGeometry x="490" y="160" width="116" height="180" as="geometry" />
        </mxCell>
        <mxCell id="-wpEujupi3Q9Y67pAaGg-22" value="+ cod: integer&lt;br&gt;+ Nome: string&lt;br&gt;+ Endereço: string&lt;br&gt;+ DataNasc: date" style="text;strokeColor=none;fillColor=none;align=left;verticalAlign=top;spacingLeft=4;spacingRight=4;overflow=hidden;rotatable=0;points=[[0,0.5],[1,0.5]];portConstraint=eastwest;whiteSpace=wrap;html=1;" vertex="1" parent="-wpEujupi3Q9Y67pAaGg-21">
          <mxGeometry y="26" width="116" height="74" as="geometry" />
        </mxCell>
        <mxCell id="-wpEujupi3Q9Y67pAaGg-23" value="" style="line;strokeWidth=1;fillColor=none;align=left;verticalAlign=middle;spacingTop=-1;spacingLeft=3;spacingRight=3;rotatable=0;labelPosition=right;points=[];portConstraint=eastwest;strokeColor=inherit;" vertex="1" parent="-wpEujupi3Q9Y67pAaGg-21">
          <mxGeometry y="100" width="116" height="8" as="geometry" />
        </mxCell>
        <mxCell id="-wpEujupi3Q9Y67pAaGg-24" value="+ adicionar()&lt;br&gt;+ atualizar()&lt;br&gt;+ consultar()&lt;br&gt;+ arquivar()&lt;br&gt;" style="text;strokeColor=none;fillColor=none;align=left;verticalAlign=top;spacingLeft=4;spacingRight=4;overflow=hidden;rotatable=0;points=[[0,0.5],[1,0.5]];portConstraint=eastwest;whiteSpace=wrap;html=1;" vertex="1" parent="-wpEujupi3Q9Y67pAaGg-21">
          <mxGeometry y="108" width="116" height="72" as="geometry" />
        </mxCell>
        <mxCell id="-wpEujupi3Q9Y67pAaGg-25" value="pertence" style="endArrow=block;endFill=1;html=1;edgeStyle=orthogonalEdgeStyle;align=left;verticalAlign=top;rounded=0;entryX=1;entryY=0.75;entryDx=0;entryDy=0;exitX=0.25;exitY=0;exitDx=0;exitDy=0;" edge="1" parent="1" source="-wpEujupi3Q9Y67pAaGg-1" target="-wpEujupi3Q9Y67pAaGg-5">
          <mxGeometry x="0.2819" y="-23" relative="1" as="geometry">
            <mxPoint x="310" y="250" as="sourcePoint" />
            <mxPoint x="240" y="370" as="targetPoint" />
            <mxPoint as="offset" />
          </mxGeometry>
        </mxCell>
        <mxCell id="-wpEujupi3Q9Y67pAaGg-26" value="&lt;b&gt;1..*&lt;/b&gt;" style="edgeLabel;resizable=0;html=1;align=left;verticalAlign=bottom;" connectable="0" vertex="1" parent="-wpEujupi3Q9Y67pAaGg-25">
          <mxGeometry x="-1" relative="1" as="geometry" />
        </mxCell>
        <mxCell id="-wpEujupi3Q9Y67pAaGg-27" value="&lt;font style=&quot;font-size: 11px;&quot;&gt;1..*&lt;/font&gt;" style="text;align=center;fontStyle=1;verticalAlign=middle;spacingLeft=3;spacingRight=3;strokeColor=none;rotatable=0;points=[[0,0.5],[1,0.5]];portConstraint=eastwest;html=1;" vertex="1" parent="1">
          <mxGeometry x="170" y="260" width="80" height="26" as="geometry" />
        </mxCell>
        <mxCell id="-wpEujupi3Q9Y67pAaGg-28" value="participa" style="endArrow=block;endFill=1;html=1;edgeStyle=orthogonalEdgeStyle;align=left;verticalAlign=top;rounded=0;entryX=0.012;entryY=0.164;entryDx=0;entryDy=0;entryPerimeter=0;exitX=0.691;exitY=0.002;exitDx=0;exitDy=0;exitPerimeter=0;" edge="1" parent="1" source="-wpEujupi3Q9Y67pAaGg-1" target="-wpEujupi3Q9Y67pAaGg-24">
          <mxGeometry x="0.0365" y="30" relative="1" as="geometry">
            <mxPoint x="420" y="310" as="sourcePoint" />
            <mxPoint x="490" y="320" as="targetPoint" />
            <mxPoint as="offset" />
          </mxGeometry>
        </mxCell>
        <mxCell id="-wpEujupi3Q9Y67pAaGg-29" value="&lt;b&gt;1..*&lt;/b&gt;" style="edgeLabel;resizable=0;html=1;align=left;verticalAlign=bottom;" connectable="0" vertex="1" parent="-wpEujupi3Q9Y67pAaGg-28">
          <mxGeometry x="-1" relative="1" as="geometry">
            <mxPoint y="1" as="offset" />
          </mxGeometry>
        </mxCell>
        <mxCell id="-wpEujupi3Q9Y67pAaGg-30" value="&lt;font style=&quot;font-size: 11px;&quot;&gt;1..*&lt;/font&gt;" style="text;align=center;fontStyle=1;verticalAlign=middle;spacingLeft=3;spacingRight=3;strokeColor=none;rotatable=0;points=[[0,0.5],[1,0.5]];portConstraint=eastwest;html=1;" vertex="1" parent="1">
          <mxGeometry x="1440" y="620" width="80" height="26" as="geometry" />
        </mxCell>
        <mxCell id="-wpEujupi3Q9Y67pAaGg-31" value="produz" style="endArrow=block;endFill=1;html=1;edgeStyle=orthogonalEdgeStyle;align=left;verticalAlign=top;rounded=0;exitX=0.5;exitY=0;exitDx=0;exitDy=0;entryX=-0.008;entryY=0.266;entryDx=0;entryDy=0;entryPerimeter=0;" edge="1" parent="1" source="-wpEujupi3Q9Y67pAaGg-13" target="-wpEujupi3Q9Y67pAaGg-4">
          <mxGeometry x="-0.4008" y="27" relative="1" as="geometry">
            <mxPoint x="330" y="480" as="sourcePoint" />
            <mxPoint x="490" y="480" as="targetPoint" />
            <mxPoint as="offset" />
          </mxGeometry>
        </mxCell>
        <mxCell id="-wpEujupi3Q9Y67pAaGg-32" value="&lt;b&gt;1..1&lt;/b&gt;" style="edgeLabel;resizable=0;html=1;align=left;verticalAlign=bottom;" connectable="0" vertex="1" parent="-wpEujupi3Q9Y67pAaGg-31">
          <mxGeometry x="-1" relative="1" as="geometry">
            <mxPoint x="2" y="1" as="offset" />
          </mxGeometry>
        </mxCell>
        <mxCell id="-wpEujupi3Q9Y67pAaGg-33" value="&lt;font style=&quot;font-size: 11px;&quot;&gt;0..*&lt;/font&gt;" style="text;align=center;fontStyle=1;verticalAlign=middle;spacingLeft=3;spacingRight=3;strokeColor=none;rotatable=0;points=[[0,0.5],[1,0.5]];portConstraint=eastwest;html=1;" vertex="1" parent="1">
          <mxGeometry x="244" y="425" width="80" height="26" as="geometry" />
        </mxCell>
        <mxCell id="-wpEujupi3Q9Y67pAaGg-34" value="realiza" style="endArrow=block;endFill=1;html=1;edgeStyle=orthogonalEdgeStyle;align=left;verticalAlign=top;rounded=0;exitX=0.5;exitY=0;exitDx=0;exitDy=0;entryX=1.016;entryY=0.284;entryDx=0;entryDy=0;entryPerimeter=0;" edge="1" parent="1" source="-wpEujupi3Q9Y67pAaGg-17" target="-wpEujupi3Q9Y67pAaGg-4">
          <mxGeometry x="-0.0204" y="-30" relative="1" as="geometry">
            <mxPoint x="330" y="400" as="sourcePoint" />
            <mxPoint x="490" y="400" as="targetPoint" />
            <mxPoint as="offset" />
          </mxGeometry>
        </mxCell>
        <mxCell id="-wpEujupi3Q9Y67pAaGg-35" value="&lt;b&gt;1..*&lt;/b&gt;" style="edgeLabel;resizable=0;html=1;align=left;verticalAlign=bottom;" connectable="0" vertex="1" parent="-wpEujupi3Q9Y67pAaGg-34">
          <mxGeometry x="-1" relative="1" as="geometry">
            <mxPoint x="3" y="-1" as="offset" />
          </mxGeometry>
        </mxCell>
        <mxCell id="-wpEujupi3Q9Y67pAaGg-36" value="&lt;font style=&quot;font-size: 11px;&quot;&gt;1..*&lt;/font&gt;" style="text;align=center;fontStyle=1;verticalAlign=middle;spacingLeft=3;spacingRight=3;strokeColor=none;rotatable=0;points=[[0,0.5],[1,0.5]];portConstraint=eastwest;html=1;" vertex="1" parent="1">
          <mxGeometry x="420" y="448" width="80" height="26" as="geometry" />
        </mxCell>
      </root>
    </mxGraphModel>
  </diagram>
</mxfile>
